<svg width="76" height="36" viewBox="0 0 76 36" fill="none" xmlns="http://www.w3.org/2000/svg">
<g clip-path="url(#clip0_1_2463)">
<path d="M73.1422 11C73.1422 14.21 70.1549 17 67.1716 17V11L65.1814 11.0001V25H67.1716V19C70.1569 19 73.1422 21.7912 73.1422 25H75.1324C75.1324 21.0598 73.1422 19 70.3847 18C73.1422 17 75.1324 14.5085 75.1324 11H73.1422ZM8.46078 11C8.46078 14.21 5.47355 17 2.4902 17V11L0.5 11.0001V25H2.4902V19C5.47549 19 8.46078 21.7912 8.46078 25H10.451C10.451 21.0598 8.46078 19 5.70337 18C8.46078 17 10.451 14.5085 10.451 11H8.46078ZM16.6446 12.9536C16.6308 12.9914 12.4412 24.5732 12.4412 24.5732L14.6481 25.36C14.6481 25.36 18.8779 13.6631 18.8825 13.6463C18.9902 13.3232 19.2934 13.3266 19.3932 13.3278C19.5951 13.327 19.8358 13.388 19.9425 13.6831L24.1656 25.36L26.3725 24.5732L22.1688 12.9525C21.9409 12.2484 21.1009 11.0013 19.4187 11.0002C17.6879 10.9868 16.868 12.2236 16.6446 12.9536ZM50.2549 18C50.2549 15.2429 52.4868 13 55.2304 13C57.9739 13 60.2059 15.2429 60.2059 18C60.2059 20.7571 57.9739 23 55.2304 23C52.4868 23 50.2549 20.7571 50.2549 18ZM48.2647 18V34H50.2549V22.51C51.1334 24.0506 53.4758 24.9666 55.2304 25C59.13 24.9666 62.2717 21.8339 62.1961 18C62.2717 14.1327 59.13 11 55.2304 11C51.4065 11 48.2647 14.1327 48.2647 18Z" fill="black"/>
<path d="M44.0442 20.2256L45.5914 21.4214C45.5835 21.432 44.725 22.5291 43.6493 24.6541C42.3339 27.2505 41.7593 28.6841 41.7534 28.6976L41.7131 28.7868C39.7612 32.5345 36.6128 34.2153 33.2905 33.2842C31.5223 32.7876 30.0567 31.6432 29.1627 30.0603C28.2688 28.4764 28.0527 26.6434 28.5547 24.8985L33.1039 9.05904C33.5066 7.6585 34.4379 6.49656 35.7248 5.78757C37.0126 5.07857 38.5028 4.90787 39.9223 5.30553C42.8497 6.12703 44.555 9.1473 43.724 12.0376L43.7171 12.0589L40.2661 23.0751L40.272 23.0537C39.6463 25.2292 37.4586 26.4572 35.2915 25.8499C34.2503 25.558 33.3976 24.9015 32.8897 24.0013C32.371 23.0829 32.2532 21.9926 32.5597 20.9277L35.711 10.1754L37.5981 10.7147L34.4477 21.4622C34.2866 22.0247 34.3426 22.5901 34.6059 23.0566C34.8623 23.5105 35.2847 23.8316 35.8279 23.984C36.9537 24.2992 38.0519 23.6715 38.382 22.5242L38.3889 22.5018C38.3889 22.5018 41.8221 11.5429 41.8339 11.5051C41.9253 11.187 41.9695 10.866 41.9695 10.5498C41.9695 9.02024 40.9479 7.61001 39.385 7.17161C38.4704 6.91556 37.5107 7.02516 36.6816 7.48198C35.8534 7.93783 35.2532 8.6866 34.9939 9.5886L30.4447 25.428C29.705 28.0002 31.2227 30.6868 33.8279 31.4181C37.1904 32.3609 39.216 29.3251 39.9469 27.9352C40.0618 27.654 40.6541 26.2312 41.8919 23.787C43.0668 21.4679 44.0049 20.275 44.0442 20.2256Z" fill="#EF3124"/>
</g>
<defs>
<clipPath id="clip0_1_2463">
<rect width="75" height="36" fill="white" transform="translate(0.5)"/>
</clipPath>
</defs>
</svg>
