<svg width="196" height="96" viewBox="0 0 196 96" fill="none" xmlns="http://www.w3.org/2000/svg">
<path d="M16.0993 55.7463H0.93335V52.4979H16.0993V55.7463Z" fill="black"/>
<path d="M19.8005 52.248H23.7726L37.4942 88.1628H33.5221L19.8005 52.248Z" fill="black"/>
<path d="M58.6182 88.7534H37.9455V85.3232H58.6182V88.7534Z" fill="black"/>
<path d="M61.71 71.8978C61.71 68.4752 62.1614 65.1888 63.0641 62.0388C63.9819 58.8888 65.3436 56.0265 67.149 53.452C68.9545 50.8774 70.8277 49.0601 72.7686 48L73.6262 50.7714C71.4295 52.4676 69.624 55.0573 68.2097 58.5405C66.8105 62.0237 66.0432 65.9233 65.9078 70.2395L65.8852 72.1704C65.8852 78.0161 66.9459 83.0894 69.0673 87.3904C70.3462 89.965 71.8658 91.9792 73.6262 93.433L72.7686 96C70.7675 94.8793 68.8567 93.0014 67.0362 90.3663C63.4854 85.2172 61.71 79.0611 61.71 71.8978Z" fill="black"/>
<path d="M95.5827 50.3376L92.0237 51.5472C93.1792 53.9664 95.8138 61.1776 96.5533 63.8294L100.158 62.5733C99.3727 59.968 96.5995 52.5707 95.5827 50.3376ZM116.104 53.3151L111.852 52.1055C110.928 59.084 108.108 66.5278 104.457 71.2266C99.7887 77.1816 92.9019 81.6479 86.2924 83.6019L89.4816 86.8585C95.9986 84.5323 102.839 79.7404 107.6 73.4132C111.39 68.3887 113.886 61.7359 115.272 55.967C115.457 55.2226 115.781 54.106 116.104 53.3151ZM82.6873 53.129L79.0359 54.4782C80.1452 56.4787 83.3344 64.3412 84.2125 67.2256L87.8639 65.8764C86.8009 62.8524 83.889 55.7343 82.6873 53.129Z" fill="black"/>
<path d="M133.523 72.1249C133.523 75.5021 133.079 78.743 132.191 81.8476C131.318 84.9371 129.972 87.7918 128.151 90.4117C126.346 93.0317 124.45 94.8945 122.464 96L121.584 93.433C123.901 91.646 125.759 88.8746 127.158 85.1188C128.573 81.3478 129.295 77.168 129.325 72.5793V71.8523C129.325 68.672 128.994 65.7189 128.332 62.9929C127.67 60.2518 126.745 57.7984 125.556 55.6327C124.382 53.4671 123.058 51.7785 121.584 50.567L122.464 48C124.45 49.1055 126.338 50.9531 128.129 53.5428C129.934 56.1325 131.281 58.9872 132.169 62.107C133.071 65.2267 133.523 68.566 133.523 72.1249Z" fill="black"/>
<path d="M157.558 88.7534H136.885V85.3232H157.558V88.7534Z" fill="black"/>
<path d="M161.643 88.1628H158.055L171.776 52.248H175.342L161.643 88.1628Z" fill="black"/>
<path d="M195.067 55.7463H179.901V52.4979H195.067V55.7463Z" fill="black"/>
</svg>
